<mxfile host="app.diagrams.net" modified="2024-03-16T11:09:12.234Z" agent="Mozilla/5.0 (Macintosh; Intel Mac OS X 10_15_7) AppleWebKit/537.36 (KHTML, like Gecko) Chrome/122.0.0.0 Safari/537.36" etag="cBRZLbgtvM5utNsmmcPd" version="24.0.7" type="github">
  <diagram name="Connect Wallet" id="zWo2-S9CaBByp21M7VKC">
    <mxGraphModel dx="1590" dy="838" grid="1" gridSize="10" guides="1" tooltips="1" connect="1" arrows="1" fold="1" page="1" pageScale="1" pageWidth="850" pageHeight="1100" math="0" shadow="0">
      <root>
        <mxCell id="0" />
        <mxCell id="1" parent="0" />
        <mxCell id="vUHadj4MvJsVCGcUXTWT-1" value="" style="rounded=0;whiteSpace=wrap;html=1;" vertex="1" parent="1">
          <mxGeometry x="235" y="90" width="380" height="60" as="geometry" />
        </mxCell>
        <mxCell id="vUHadj4MvJsVCGcUXTWT-3" value="&lt;font style=&quot;font-size: 26px;&quot;&gt;Connect Wallet&lt;/font&gt;" style="text;html=1;align=center;verticalAlign=middle;whiteSpace=wrap;rounded=0;" vertex="1" parent="1">
          <mxGeometry x="260" y="105" width="330" height="30" as="geometry" />
        </mxCell>
      </root>
    </mxGraphModel>
  </diagram>
</mxfile>
